{"title":"Formula 1 2011 Race 16 Korea BBC F1 Forum","uid":6749062,"size":633560716,"categoryP":"video","categoryS":"tv_shows","magnet":"?xt=urn:btih:fe5e0a93cf7065abd94825967614c7cbb05626b4&amp;dn=Formula+1+2011+Race+16+Korea+BBC+F1+Forum&amp;tr=udp%3A%2F%2Ftracker.openbittorrent.com%3A80&amp;tr=udp%3A%2F%2Fopen.demonii.com%3A1337&amp;tr=udp%3A%2F%2Ftracker.coppersurfer.tk%3A6969&amp;tr=udp%3A%2F%2Fexodus.desync.com%3A6969","seeders":1,"leechers":0,"uploader":"jorrell0733","files":3,"time":1318818627,"description":"Formula One 2011 Season\n\nBBc F1 Forum\nRace 16: Korean Grand Prix,\n\nRecord Source: BBC One Red Button Service\nOriginal Format: MPEG TS Stream\nDate: Sunday 16th Octt 2011\nTime: 09:15 to 10:15\n\n***PLEASE NOTE*** For those who are unfamiliar with the BBC F1 FOrum, This is\n\nthe POST RACE Anaylsis of the Japanese Grand Prix. DO NOT WATCH THIS UNTIL YOU\n\nKNOW THE RESULT OF THE RACE!!\n\nJake Humpfries ,Martin Brundle &amp; David Coulthard present POST RACE coverage of\n\nthe BBC Red Button F1 Forum for the 16th Race meeting of the 2011 Formula One\n\nseason, The Korean Grand Prix.\n\nComplete File Name : F1 2011 Race 16 Korean BBC F1 Forum.mkv\nFormat : Matroska\nFormat version : Version 2\nFile size : 604 MiB\nDuration : 51mn 47s\nOverall bit rate : 1 631 Kbps\nWriting application : HandBrake 0.9.5\nWriting library : libmkv 0.6.4.1\n\nVideo\nID : 1\nFormat : AVC\nFormat/Info : Advanced Video Codec\nFormat profile : &lt;a class=&quot;__cf_email__&quot; href=&quot;/cdn-cgi/l/email-protection&quot; data-cfemail=&quot;92dff3fbfcd2dea1bca2&quot;&gt;[email&amp;#160;protected]&lt;/a&gt;&lt;script cf-hash='f9e31' type=&quot;text/javascript&quot;&gt;\n/* &lt;![CDATA[ */!function(){try{var t=&quot;currentScript&quot;in document?document.currentScript:function(){for(var t=document.getElementsByTagName(&quot;script&quot;),e=t.length;e--;)if(t[e].getAttribute(&quot;cf-hash&quot;))return t[e]}();if(t&amp;&amp;t.previousSibling){var e,r,n,i,c=t.previousSibling,a=c.getAttribute(&quot;data-cfemail&quot;);if(a){for(e=&quot;&quot;,r=parseInt(a.substr(0,2),16),n=2;a.length-n;n+=2)i=parseInt(a.substr(n,2),16)^r,e+=String.fromCharCode(i);e=document.createTextNode(e),c.parentNode.replaceChild(e,c)}}}catch(u){}}();/* ]]&gt; */&lt;/script&gt;\nFormat settings, CABAC : Yes\nFormat settings, ReFrames : 4 frames\nCodec ID : V_MPEG4/ISO/AVC\nDuration : 51mn 47s\nBit rate : 1 500 Kbps\nWidth : 544 pixels\nHeight : 576 pixels\nDisplay aspect ratio : 16:9\nFrame rate mode : Variable\nFrame rate : 25.000 fps\nColor space : YUV\nChroma subsampling : 4:2:0\nBit depth : 8 bits\nScan type : Progressive\nBits/(Pixel*Frame) : 0.191\nStream size : 545 MiB (90%)\nWriting library : x264 core 112\nEncoding settings : cabac=1 / ref=2 / deblock=1:0:0 /\n\nanalyse=0x1:0x111 / me=hex / subme=6 / psy=1 / psy_rd=1.00:0.00 / mixed_ref=0\n\n/ me_range=16 / chroma_me=1 / trellis=0 / 8x8dct=0 / cqm=0 / deadzone=21,11 /\n\nfast_pskip=1 / chroma_qp_offset=-2 / threads=3 / sliced_threads=0 / nr=0 /\n\ndecimate=1 / interlaced=0 / constrained_intra=0 / bframes=2 / b_pyramid=2 /\n\nb_adapt=1 / b_bias=0 / direct=1 / weightb=0 / open_gop=0 / weightp=2 /\n\nkeyint=250 / keyint_min=25 / scenecut=40 / intra_refresh=0 / rc_lookahead=40 /\n\nrc=abr / mbtree=1 / bitrate=1500 / ratetol=1.0 / qcomp=0.60 / qpmin=3 /\n\nqpmax=51 / qpstep=4 / ip_ratio=1.40 / aq=1:1.00\nLanguage : English\nColor primaries : BT.601-6 525, BT.1358 525, BT.1700 NTSC,\n\nSMPTE 170M\nTransfer characteristics : BT.709-5, BT.1361\nMatrix coefficients : BT.601-6 525, BT.1358 525, BT.1700 NTSC,\n\nSMPTE 170M\n\nAudio\nID : 2\nFormat : AC-3\nFormat/Info : Audio Coding 3\nMode extension : CM (complete main)\nCodec ID : A_AC3\nDuration : 51mn 47s\nBit rate mode : Constant\nBit rate : 128 Kbps\nChannel(s) : 2 channels\nChannel positions : Front: L R\nSampling rate : 48.0 KHz\nBit depth : 16 bits\nCompression mode : Lossy\nStream size : 47.4 MiB (8%)\nLanguage : English\n\n\n\n\n\nEnjoy, The Blacknight","torrent":{"xt":"urn:btih:fe5e0a93cf7065abd94825967614c7cbb05626b4","amp;dn":"Formula+1+2011+Race+16+Korea+BBC+F1+Forum","amp;tr":["udp%3A%2F%2Ftracker.openbittorrent.com%3A80","udp%3A%2F%2Fopen.demonii.com%3A1337","udp%3A%2F%2Ftracker.coppersurfer.tk%3A6969","udp%3A%2F%2Fexodus.desync.com%3A6969"],"infoHash":"fe5e0a93cf7065abd94825967614c7cbb05626b4","infoHashBuffer":{"type":"Buffer","data":[254,94,10,147,207,112,101,171,217,72,37,150,118,20,199,203,176,86,38,180]},"announce":[],"urlList":[]}}